<svg width="189" height="189" xmlns="http://www.w3.org/2000/svg" xmlns:xlink="http://www.w3.org/1999/xlink" xml:space="preserve" overflow="hidden"><defs><clipPath id="clip0"><path d="M638.242 280.454 673.303 299.166 654.591 334.226 619.531 315.515Z" fill-rule="evenodd" clip-rule="evenodd"/></clipPath><clipPath id="clip1"><path d="M638.242 280.454 673.303 299.166 654.591 334.226 619.531 315.515Z" fill-rule="evenodd" clip-rule="evenodd"/></clipPath><clipPath id="clip2"><path d="M638.242 280.454 673.303 299.166 654.591 334.226 619.531 315.515Z" fill-rule="evenodd" clip-rule="evenodd"/></clipPath></defs><g transform="translate(-597 -256)"><path d="M12.4622 28.9269 20.6491 28.9269 20.6491 30.7463 12.4622 30.7463Z" stroke="#DCEAF7" stroke-width="0.454826" fill="#CAEEFB" transform="matrix(1.26958 0.368121 -0.525888 0.888705 713.42 368.098)"/><path d="M25.8125 19.25C25.8125 20.2165 25.029 21 24.0625 21 23.096 21 22.3125 20.2165 22.3125 19.25 22.3125 18.2835 23.096 17.5 24.0625 17.5 25.029 17.5 25.8125 18.2835 25.8125 19.25Z" stroke="#DCEAF7" stroke-width="0.4375" fill="#CAEEFB" transform="matrix(1.42857 0 0 1 696 372)"/><path d="M25.8125 19.25C25.8125 20.2165 25.029 21 24.0625 21 23.096 21 22.3125 20.2165 22.3125 19.25 22.3125 18.2835 23.096 17.5 24.0625 17.5 25.029 17.5 25.8125 18.2835 25.8125 19.25Z" stroke="#DCEAF7" stroke-width="0.4375" fill="#CAEEFB" transform="matrix(1.42857 0 0 1 696 372)"/><path d="M24.9375 35.875C28.1313 33.4688 30.1875 29.6625 30.1875 25.375 30.1875 20.9563 27.9563 17.0188 24.5875 14.6562L28.1313 6.125 26.9062 5.64375 27.8687 3.28125 25.4625 2.275 24.5 4.6375 23.275 4.15625 15.8812 21.9625 15.8812 21.9625C15.5312 22.8375 15.6625 23.8438 16.2312 24.5437L15.75 25.6812 18.1562 26.6875 18.6375 25.55C19.5562 25.4187 20.3438 24.85 20.7375 23.975L20.7375 23.975 21.2188 22.75 27.2125 22.75C27.4312 23.5813 27.5625 24.4563 27.5625 25.375 27.5625 31.15 22.8375 35.875 17.0625 35.875L8.75 35.875 8.75 38.5 8.75 39.375 33.25 39.375 33.25 38.5 33.25 35.875 24.9375 35.875ZM24.0625 21.875C22.6187 21.875 21.4375 20.6938 21.4375 19.25 21.4375 17.8062 22.6187 16.625 24.0625 16.625 25.5063 16.625 26.6875 17.8062 26.6875 19.25 26.6875 20.6938 25.5063 21.875 24.0625 21.875Z" stroke="#DCEAF7" stroke-width="0.4375" fill="#CAEEFB" transform="matrix(1.42857 0 0 1 696 372)"/><g clip-path="url(#clip0)"><g clip-path="url(#clip1)"><g clip-path="url(#clip2)"><path d="M654.452 311.628C656.673 307.465 655.067 303.792 653.006 300.533 656.88 300.396 660.806 299.722 663.028 295.559L660.836 294.389C660.485 295.047 660.045 295.609 659.57 296.059L648.467 290.134C648.577 289.489 648.799 288.81 649.15 288.152L646.958 286.983C644.736 291.146 646.362 294.782 648.404 298.077 644.549 298.179 640.604 298.889 638.382 303.052 636.141 307.252 637.747 310.925 639.809 314.183 635.954 314.285 632.028 314.958 629.806 319.121L631.997 320.291C632.368 319.597 632.789 319.071 633.264 318.621L644.367 324.546C644.257 325.191 644.055 325.834 643.684 326.528L645.875 327.697C648.097 323.534 646.472 319.898 644.41 316.639 648.265 316.538 652.21 315.828 654.452 311.628ZM640.573 304.222C640.924 303.564 641.365 303.002 641.84 302.551L652.979 308.496C652.869 309.141 652.648 309.821 652.297 310.478 651.946 311.136 651.505 311.698 651.03 312.148L639.891 306.204C640.001 305.558 640.223 304.879 640.573 304.222ZM648.685 293.066 656.976 297.491C655.351 297.984 653.406 298.025 651.331 298.044 650.228 296.33 649.179 294.69 648.685 293.066ZM650.042 300.547C651.181 302.281 652.23 303.92 652.724 305.545L644.397 301.101C646.022 300.607 647.987 300.53 650.042 300.547ZM641.447 316.653C642.605 318.351 643.618 319.97 644.112 321.595L635.858 317.19C637.482 316.696 639.391 316.635 641.447 316.653ZM642.772 314.17C641.596 312.416 640.547 310.777 640.073 309.116L648.473 313.599C646.829 314.129 644.883 314.17 642.772 314.17Z" stroke="#DCEAF7" stroke-width="0.414018" fill="#CAEEFB"/></g></g></g><path d="M57.6863 155 45.3886 84.9985 74 89.4999 16.3137 0 28.6115 70.0015 0 65.5001Z" stroke="#CAEEFB" stroke-width="8" stroke-linecap="round" stroke-linejoin="round" stroke-miterlimit="10" fill="none" fill-rule="evenodd" transform="matrix(1 -1.22465e-16 -1.22465e-16 -1 650 427)"/><path d="M598 350.5C598 298.861 639.861 257 691.5 257 743.139 257 785 298.861 785 350.5 785 402.139 743.139 444 691.5 444 639.861 444 598 402.139 598 350.5Z" stroke="#CAEEFB" stroke-width="2" stroke-miterlimit="8" fill="none" fill-rule="evenodd"/></g></svg>