<svg width="188" height="188" xmlns="http://www.w3.org/2000/svg" xmlns:xlink="http://www.w3.org/1999/xlink" xml:space="preserve" overflow="hidden"><defs><clipPath id="clip0"><path d="M443.736 115.795 478.796 134.506 460.085 169.567 425.024 150.855Z" fill-rule="evenodd" clip-rule="evenodd"/></clipPath><clipPath id="clip1"><path d="M443.736 115.795 478.796 134.506 460.085 169.567 425.024 150.855Z" fill-rule="evenodd" clip-rule="evenodd"/></clipPath><clipPath id="clip2"><path d="M443.736 115.795 478.796 134.506 460.085 169.567 425.024 150.855Z" fill-rule="evenodd" clip-rule="evenodd"/></clipPath></defs><g transform="translate(-390 -102)"><path d="M13.3478 30.9824 22.1164 30.9824 22.1164 32.931 13.3478 32.931Z" stroke="#DCEAF7" stroke-width="0.487145" fill="#FFFFFF" transform="matrix(1.26437 0.368249 -0.523732 0.889013 504.581 216.819)"/><path d="M27.6562 20.625C27.6562 21.6605 26.8168 22.5 25.7812 22.5 24.7457 22.5 23.9062 21.6605 23.9062 20.625 23.9062 19.5895 24.7457 18.75 25.7812 18.75 26.8168 18.75 27.6562 19.5895 27.6562 20.625Z" stroke="#DCEAF7" stroke-width="0.46875" fill="#FFFFFF" transform="matrix(1.42222 0 0 1 486 221)"/><path d="M27.6562 20.625C27.6562 21.6605 26.8168 22.5 25.7812 22.5 24.7457 22.5 23.9062 21.6605 23.9062 20.625 23.9062 19.5895 24.7457 18.75 25.7812 18.75 26.8168 18.75 27.6562 19.5895 27.6562 20.625Z" stroke="#DCEAF7" stroke-width="0.46875" fill="#FFFFFF" transform="matrix(1.42222 0 0 1 486 221)"/><path d="M26.7188 38.4375C30.1406 35.8594 32.3438 31.7813 32.3438 27.1875 32.3438 22.4531 29.9531 18.2344 26.3438 15.7031L30.1406 6.5625 28.8281 6.04688 29.8594 3.51562 27.2812 2.4375 26.25 4.96875 24.9375 4.45312 17.0156 23.5312 17.0156 23.5312C16.6406 24.4688 16.7812 25.5469 17.3906 26.2969L16.875 27.5156 19.4531 28.5938 19.9688 27.375C20.9531 27.2344 21.7969 26.625 22.2188 25.6875L22.2188 25.6875 22.7344 24.375 29.1562 24.375C29.3906 25.2656 29.5312 26.2031 29.5312 27.1875 29.5312 33.375 24.4688 38.4375 18.2812 38.4375L9.375 38.4375 9.375 41.25 9.375 42.1875 35.625 42.1875 35.625 41.25 35.625 38.4375 26.7188 38.4375ZM25.7812 23.4375C24.2344 23.4375 22.9688 22.1719 22.9688 20.625 22.9688 19.0781 24.2344 17.8125 25.7812 17.8125 27.3281 17.8125 28.5938 19.0781 28.5938 20.625 28.5938 22.1719 27.3281 23.4375 25.7812 23.4375Z" stroke="#DCEAF7" stroke-width="0.46875" fill="#FFFFFF" transform="matrix(1.42222 0 0 1 486 221)"/><g clip-path="url(#clip0)"><g clip-path="url(#clip1)"><g clip-path="url(#clip2)"><path d="M459.945 146.969C462.167 142.806 460.561 139.133 458.499 135.874 462.373 135.736 466.299 135.063 468.521 130.9L466.33 129.73C465.979 130.388 465.538 130.95 465.063 131.4L453.96 125.475C454.07 124.83 454.292 124.15 454.643 123.493L452.452 122.324C450.23 126.487 451.855 130.123 453.897 133.418 450.043 133.519 446.097 134.229 443.876 138.393 441.634 142.593 443.24 146.265 445.302 149.524 441.447 149.625 437.521 150.299 435.299 154.462L437.491 155.632C437.861 154.938 438.282 154.412 438.757 153.962L449.86 159.887C449.75 160.532 449.548 161.175 449.178 161.869L451.369 163.038C453.591 158.875 451.965 155.239 449.904 151.98 453.758 151.879 457.703 151.169 459.945 146.969ZM446.067 139.562C446.418 138.905 446.859 138.343 447.334 137.892L458.472 143.837C458.363 144.482 458.141 145.162 457.79 145.819 457.439 146.476 456.998 147.039 456.523 147.489L445.384 141.544C445.494 140.899 445.716 140.22 446.067 139.562ZM454.179 128.407 462.469 132.831C460.845 133.325 458.899 133.366 456.824 133.385 455.722 131.67 454.673 130.031 454.179 128.407ZM455.536 135.888C456.675 137.622 457.724 139.261 458.218 140.886L449.891 136.442C451.515 135.948 453.48 135.87 455.536 135.888ZM446.94 151.994C448.099 153.691 449.111 155.311 449.605 156.935L441.351 152.53C442.976 152.037 444.885 151.976 446.94 151.994ZM448.265 149.51C447.09 147.757 446.041 146.118 445.566 144.457L453.966 148.94C452.322 149.47 450.377 149.511 448.265 149.51Z" stroke="#DCEAF7" stroke-width="0.414018" fill="#FFFFFF"/></g></g></g><path d="M56.9818 155.236 44.8343 85.1281 73.0964 89.6363 16.1145 0 28.2622 70.1082 0 65.6Z" stroke="#FFEDB3" stroke-width="8" stroke-linecap="round" stroke-linejoin="round" stroke-miterlimit="10" fill="none" fill-rule="evenodd" transform="matrix(-0.965926 -0.258819 -0.258819 0.965926 539.352 130.58)"/><path d="M391 196C391 144.638 432.638 103 484 103 535.362 103 577 144.638 577 196 577 247.362 535.362 289 484 289 432.638 289 391 247.362 391 196Z" stroke="#FFFAEB" stroke-width="2" stroke-miterlimit="8" fill="none" fill-rule="evenodd"/></g></svg>