<svg width="188" height="188" xmlns="http://www.w3.org/2000/svg" xmlns:xlink="http://www.w3.org/1999/xlink" xml:space="preserve" overflow="hidden"><defs><clipPath id="clip0"><path d="M361.572 339.289 396.632 358.001 377.921 393.061 342.861 374.35Z" fill-rule="evenodd" clip-rule="evenodd"/></clipPath><clipPath id="clip1"><path d="M361.572 339.289 396.632 358.001 377.921 393.061 342.861 374.35Z" fill-rule="evenodd" clip-rule="evenodd"/></clipPath><clipPath id="clip2"><path d="M361.572 339.289 396.632 358.001 377.921 393.061 342.861 374.35Z" fill-rule="evenodd" clip-rule="evenodd"/></clipPath></defs><g transform="translate(-321 -315)"><path d="M12.4622 28.9269 20.6491 28.9269 20.6491 30.7463 12.4622 30.7463Z" stroke="#DCEAF7" stroke-width="0.454826" fill="#FFFFFF" transform="matrix(1.26958 0.368121 -0.525888 0.888705 436.42 427.098)"/><path d="M25.8125 19.25C25.8125 20.2165 25.029 21 24.0625 21 23.096 21 22.3125 20.2165 22.3125 19.25 22.3125 18.2835 23.096 17.5 24.0625 17.5 25.029 17.5 25.8125 18.2835 25.8125 19.25Z" stroke="#DCEAF7" stroke-width="0.4375" fill="#FFFFFF" transform="matrix(1.42857 0 0 1 419 431)"/><path d="M25.8125 19.25C25.8125 20.2165 25.029 21 24.0625 21 23.096 21 22.3125 20.2165 22.3125 19.25 22.3125 18.2835 23.096 17.5 24.0625 17.5 25.029 17.5 25.8125 18.2835 25.8125 19.25Z" stroke="#DCEAF7" stroke-width="0.4375" fill="#FFFFFF" transform="matrix(1.42857 0 0 1 419 431)"/><path d="M24.9375 35.875C28.1313 33.4688 30.1875 29.6625 30.1875 25.375 30.1875 20.9563 27.9563 17.0188 24.5875 14.6562L28.1313 6.125 26.9062 5.64375 27.8687 3.28125 25.4625 2.275 24.5 4.6375 23.275 4.15625 15.8812 21.9625 15.8812 21.9625C15.5312 22.8375 15.6625 23.8438 16.2312 24.5437L15.75 25.6812 18.1562 26.6875 18.6375 25.55C19.5562 25.4187 20.3438 24.85 20.7375 23.975L20.7375 23.975 21.2188 22.75 27.2125 22.75C27.4312 23.5813 27.5625 24.4563 27.5625 25.375 27.5625 31.15 22.8375 35.875 17.0625 35.875L8.75 35.875 8.75 38.5 8.75 39.375 33.25 39.375 33.25 38.5 33.25 35.875 24.9375 35.875ZM24.0625 21.875C22.6187 21.875 21.4375 20.6938 21.4375 19.25 21.4375 17.8062 22.6187 16.625 24.0625 16.625 25.5063 16.625 26.6875 17.8062 26.6875 19.25 26.6875 20.6938 25.5063 21.875 24.0625 21.875Z" stroke="#DCEAF7" stroke-width="0.4375" fill="#FFFFFF" transform="matrix(1.42857 0 0 1 419 431)"/><g clip-path="url(#clip0)"><g clip-path="url(#clip1)"><g clip-path="url(#clip2)"><path d="M377.781 370.463C380.003 366.3 378.397 362.627 376.335 359.369 380.21 359.231 384.135 358.557 386.357 354.394L384.166 353.225C383.815 353.882 383.374 354.444 382.899 354.895L371.797 348.969C371.907 348.324 372.128 347.645 372.479 346.987L370.288 345.818C368.066 349.981 369.692 353.617 371.734 356.913 367.879 357.014 363.934 357.724 361.712 361.887 359.47 366.087 361.077 369.76 363.138 373.019 359.283 373.12 355.358 373.793 353.136 377.957L355.327 379.126C355.697 378.432 356.119 377.906 356.594 377.456L367.696 383.381C367.586 384.026 367.384 384.669 367.014 385.363L369.205 386.533C371.427 382.369 369.801 378.733 367.74 375.474 371.595 375.373 375.54 374.663 377.781 370.463ZM363.903 363.057C364.254 362.399 364.695 361.837 365.17 361.387L376.309 367.331C376.199 367.977 375.977 368.656 375.626 369.313 375.276 369.971 374.835 370.533 374.36 370.983L363.221 365.039C363.331 364.393 363.552 363.714 363.903 363.057ZM372.015 351.901 380.305 356.326C378.681 356.82 376.735 356.86 374.661 356.879 373.558 355.165 372.509 353.526 372.015 351.901ZM373.372 359.382C374.511 361.116 375.56 362.756 376.054 364.38L367.727 359.936C369.351 359.442 371.317 359.365 373.372 359.382ZM364.776 375.488C365.935 377.186 366.947 378.805 367.441 380.43L359.188 376.025C360.812 375.531 362.721 375.471 364.776 375.488ZM366.102 373.005C364.926 371.251 363.877 369.612 363.403 367.951L371.802 372.434C370.159 372.964 368.213 373.005 366.102 373.005Z" stroke="#DCEAF7" stroke-width="0.414018" fill="#FFFFFF"/></g></g></g><path d="M56.9067 156 44.7752 85.5469 73 90.0773 16.0933 0 28.2249 70.4531 0 65.9227Z" stroke="#FFFFFF" stroke-width="8" stroke-linecap="round" stroke-linejoin="round" stroke-miterlimit="10" fill="none" fill-rule="evenodd" transform="matrix(1 -1.22465e-16 -1.22465e-16 -1 374 486)"/><path d="M322 409C322 357.638 363.638 316 415 316 466.362 316 508 357.638 508 409 508 460.362 466.362 502 415 502 363.638 502 322 460.362 322 409Z" stroke="#FFFFFF" stroke-width="2" stroke-miterlimit="8" fill="none" fill-rule="evenodd"/></g></svg>